<svg width="154" height="24" viewBox="0 0 154 24" fill="none" xmlns="http://www.w3.org/2000/svg">
<path d="M12.1878 23.2524C9.97934 23.2524 7.98119 22.7686 6.19336 21.8011C4.42657 20.8125 3.03838 19.4664 2.02878 17.7627C1.01919 16.038 0.514392 14.1029 0.514392 11.9576C0.514392 9.81217 1.01919 7.88763 2.02878 6.18394C3.03838 4.45922 4.43709 3.11309 6.22491 2.14556C8.01274 1.157 10.0109 0.662721 12.2194 0.662721C13.9441 0.662721 15.5216 0.957186 16.9519 1.54612C18.3821 2.11401 19.602 2.96586 20.6116 4.10165L18.5609 6.08929C16.8993 4.34353 14.8275 3.47065 12.3456 3.47065C10.705 3.47065 9.22215 3.83874 7.89705 4.5749C6.57196 5.31106 5.53082 6.33117 4.77362 7.63523C4.03746 8.91826 3.66937 10.359 3.66937 11.9576C3.66937 13.5561 4.03746 15.0074 4.77362 16.3114C5.53082 17.5945 6.57196 18.6041 7.89705 19.3402C9.22215 20.0764 10.705 20.4445 12.3456 20.4445C14.8065 20.4445 16.8782 19.5611 18.5609 17.7943L20.6116 19.7819C19.602 20.9177 18.3716 21.7801 16.9203 22.369C15.49 22.9579 13.9126 23.2524 12.1878 23.2524ZM34.62 23.2524C32.3905 23.2524 30.3818 22.7686 28.594 21.8011C26.8062 20.8125 25.3969 19.4559 24.3663 17.7312C23.3567 16.0065 22.8519 14.0819 22.8519 11.9576C22.8519 9.8332 23.3567 7.90866 24.3663 6.18394C25.3969 4.45922 26.8062 3.11309 28.594 2.14556C30.3818 1.157 32.3905 0.662721 34.62 0.662721C36.8285 0.662721 38.8266 1.157 40.6145 2.14556C42.4023 3.11309 43.801 4.45922 44.8106 6.18394C45.8202 7.88763 46.325 9.81217 46.325 11.9576C46.325 14.1029 45.8202 16.038 44.8106 17.7627C43.801 19.4664 42.4023 20.8125 40.6145 21.8011C38.8266 22.7686 36.8285 23.2524 34.62 23.2524ZM34.62 20.4445C36.2396 20.4445 37.6909 20.0764 38.9739 19.3402C40.2779 18.6041 41.2981 17.5945 42.0342 16.3114C42.7914 15.0074 43.17 13.5561 43.17 11.9576C43.17 10.359 42.7914 8.91826 42.0342 7.63523C41.2981 6.33117 40.2779 5.31106 38.9739 4.5749C37.6909 3.83874 36.2396 3.47065 34.62 3.47065C33.0004 3.47065 31.5281 3.83874 30.203 4.5749C28.899 5.31106 27.8683 6.33117 27.1111 7.63523C26.375 8.91826 26.0069 10.359 26.0069 11.9576C26.0069 13.5561 26.375 15.0074 27.1111 16.3114C27.8683 17.5945 28.899 18.6041 30.203 19.3402C31.5281 20.0764 33.0004 20.4445 34.62 20.4445ZM61.4324 0.662721C64.0826 0.662721 66.1544 1.46198 67.6477 3.06051C69.1411 4.65903 69.8878 6.94114 69.8878 9.90682V23H66.7644V10.0015C66.7644 7.85608 66.2385 6.23652 65.1869 5.1428C64.1352 4.02804 62.6734 3.47065 60.8014 3.47065C58.7822 3.47065 57.1942 4.05959 56.0374 5.23745C54.8806 6.41531 54.3022 8.16106 54.3022 10.4747V23H51.1472V0.915118H54.176V4.03855C55.6693 1.788 58.0881 0.662721 61.4324 0.662721ZM82.7554 23.2524C81.0938 23.2524 79.4848 23 77.9283 22.4952C76.3929 21.9694 75.1835 21.2963 74.3001 20.476L75.4674 18.0151C76.3087 18.7723 77.3814 19.3928 78.6855 19.8766C80.0106 20.3393 81.3672 20.5707 82.7554 20.5707C84.5853 20.5707 85.9525 20.2657 86.8569 19.6557C87.7613 19.0247 88.2135 18.1939 88.2135 17.1633C88.2135 16.4061 87.9612 15.7961 87.4564 15.3334C86.9726 14.8496 86.3626 14.4815 85.6265 14.2291C84.9113 13.9767 83.8912 13.6928 82.5661 13.3773C80.9045 12.9777 79.5584 12.578 78.5278 12.1784C77.5182 11.7788 76.6453 11.1688 75.9091 10.3485C75.194 9.50719 74.8364 8.38191 74.8364 6.97269C74.8364 5.79483 75.1414 4.73265 75.7514 3.78615C76.3824 2.83966 77.3289 2.08246 78.5909 1.51456C79.8528 0.946669 81.4198 0.662721 83.2918 0.662721C84.5958 0.662721 85.8789 0.830986 87.1409 1.16752C88.4028 1.50405 89.4861 1.98781 90.3905 2.61881L89.3493 5.1428C88.4239 4.55387 87.4353 4.11217 86.3837 3.8177C85.332 3.5022 84.3014 3.34446 83.2918 3.34446C81.504 3.34446 80.1578 3.67047 79.2534 4.3225C78.37 4.97453 77.9283 5.81586 77.9283 6.84649C77.9283 7.60368 78.1807 8.22416 78.6855 8.70793C79.1903 9.17066 79.8108 9.53874 80.5469 9.81217C81.3041 10.0646 82.3242 10.338 83.6073 10.6325C85.2689 11.0321 86.6045 11.4317 87.6141 11.8314C88.6237 12.231 89.4861 12.841 90.2012 13.6613C90.9374 14.4815 91.3054 15.5858 91.3054 16.974C91.3054 18.1308 90.9899 19.193 90.3589 20.1605C89.7279 21.107 88.7709 21.8642 87.4879 22.4321C86.2049 22.979 84.6274 23.2524 82.7554 23.2524ZM114.34 0.915118V23H111.311V19.8766C109.818 22.1271 107.42 23.2524 104.118 23.2524C101.488 23.2524 99.4272 22.4531 97.9339 20.8546C96.4615 19.2561 95.7254 16.974 95.7254 14.0083V0.915118H98.8804V13.9136C98.8804 16.038 99.4062 17.6576 100.458 18.7723C101.51 19.8871 102.95 20.4445 104.78 20.4445C106.757 20.4445 108.324 19.8555 109.481 18.6777C110.638 17.4998 111.216 15.7541 111.216 13.4404V0.915118H114.34ZM120.964 0.915118H124.118V20.2552H136.076V23H120.964V0.915118ZM152.208 5.67914C150.063 4.45922 147.77 3.73357 145.33 3.5022V23H142.207V3.5022C139.746 3.73357 137.443 4.45922 135.297 5.67914L134.193 3.18671C137.011 1.50405 140.187 0.662721 143.721 0.662721C147.297 0.662721 150.494 1.50405 153.312 3.18671L152.208 5.67914Z" fill="white"/>
</svg>
