<svg width="11" height="5" viewBox="0 0 11 5" fill="none" xmlns="http://www.w3.org/2000/svg">
<path d="M10.2365 0.1121L5.49952 4.09705L0.762546 0.1121C0.677912 0.0407579 0.564298 0.000817869 0.44599 0.000817869C0.327682 0.000817869 0.214068 0.0407579 0.129434 0.1121C0.0884543 0.14675 0.0558984 0.188109 0.0336731 0.233755C0.0114478 0.2794 0 0.328415 0 0.377926C0 0.427438 0.0114478 0.476451 0.0336731 0.522097C0.0558984 0.567742 0.0884543 0.609102 0.129434 0.643753L5.16874 4.88389C5.25724 4.95834 5.37593 5 5.49952 5C5.6231 5 5.74179 4.95834 5.83029 4.88389L10.8696 0.644571C10.9109 0.609894 10.9437 0.568433 10.9661 0.522636C10.9885 0.47684 11 0.427635 11 0.377926C11 0.328218 10.9885 0.279012 10.9661 0.233216C10.9437 0.187419 10.9109 0.145958 10.8696 0.111281C10.785 0.0399396 10.6713 0 10.553 0C10.4347 0 10.3211 0.0399396 10.2365 0.111281V0.1121Z" fill="#333333"/>
</svg>
